<svg version="1.0" xmlns="http://www.w3.org/2000/svg" viewBox="0 0 256.000000 173.000000"
 preserveAspectRatio="xMidYMid meet" class="social-img-svg" width="144.000000pt" height="144.000000pt">
    <linearGradient x1="0" y1="0" x2="100%" y2="100%" id="gradient">
        <stop class="gradient__brand-secondary" offset="0"/>
        <stop class="gradient__brand" offset="100%"/>
    </linearGradient>
<g fill="url(#gradient)" transform="translate(0.000000,173.000000) scale(0.100000,-0.100000)" stroke="none" class="social-img-g">
<path d="M367 1689 c-109 -72 -258 -293 -316 -469 -89 -273 -57 -634 80 -890
90 -167 243 -330 310 -330 17 0 49 40 49 61 0 11 -29 51 -68 92 -99 105 -146
171 -196 278 -63 132 -86 234 -93 404 -12 302 64 501 285 745 39 44 72 87 72
94 0 22 -29 46 -54 46 -12 0 -44 -14 -69 -31z"/>
<path d="M2090 1700 c-11 -11 -20 -29 -20 -40 0 -11 34 -57 76 -102 136 -147
204 -267 251 -443 24 -90 26 -117 26 -275 1 -201 -14 -273 -83 -419 -50 -104
-92 -162 -192 -268 -78 -82 -93 -114 -66 -141 16 -16 53 -15 87 2 73 38 237
249 296 381 102 230 121 522 50 772 -61 212 -209 445 -334 525 -53 33 -65 34
-91 8z"/>
<path d="M1066 1671 c-3 -4 6 -19 20 -32 48 -45 69 -97 68 -174 -1 -84 -15
-125 -104 -315 -80 -169 -96 -215 -111 -311 -14 -88 -1 -167 40 -256 49 -103
175 -214 243 -212 l23 0 -25 17 c-14 9 -46 37 -71 62 -35 34 -49 57 -58 97
-19 78 2 136 97 271 90 127 110 177 92 241 -6 24 -9 45 -6 48 11 11 81 -34 98
-62 32 -56 48 -142 41 -221 l-6 -74 25 0 c37 0 52 25 58 94 l5 61 23 -47 c50
-101 46 -222 -10 -338 -18 -36 -34 -69 -36 -75 -3 -5 21 15 53 45 171 165 227
528 118 759 -24 51 -117 160 -128 150 -2 -3 3 -27 11 -54 17 -57 14 -106 -11
-160 -24 -50 -59 -66 -86 -38 -16 15 -22 41 -29 114 -16 165 -61 273 -145 347
-61 54 -172 91 -189 63z"/>
<path d="M667 282 c-23 -25 -21 -78 3 -102 20 -20 33 -20 630 -20 l611 0 24
25 c31 30 32 65 2 93 l-23 22 -616 0 c-583 0 -616 -1 -631 -18z"/>
</g>
</svg>
