<svg version="1.0" xmlns="http://www.w3.org/2000/svg" viewBox="0 0 144.000000 141.000000"
 preserveAspectRatio="xMidYMid meet" class="social-img-svg" width="144.000000pt" height="144.000000pt">
    <linearGradient x1="0" y1="0" x2="100%" y2="100%" id="gradient">
        <stop class="gradient__brand-secondary" offset="0"/>
        <stop class="gradient__brand" offset="100%"/>
    </linearGradient>
<g fill="url(#gradient)" transform="translate(0.000000,141.000000) scale(0.100000,-0.100000)"
 stroke="none">
<path d="M600 1401 c-361 -67 -620 -395 -597 -756 18 -267 175 -500 414 -612
39 -18 78 -33 85 -33 28 0 38 25 38 91 l0 66 -49 -5 c-94 -9 -155 27 -201 118
-16 32 -45 71 -65 86 -39 29 -43 39 -19 48 29 11 93 -27 132 -79 45 -59 95
-81 156 -68 21 4 42 15 46 23 5 8 14 29 21 45 7 17 15 33 16 36 2 3 -22 11
-54 19 -175 38 -257 144 -258 331 0 77 3 92 32 147 27 54 31 69 26 115 -3 28
0 72 7 96 11 43 11 43 51 38 22 -3 67 -20 101 -37 59 -31 64 -32 116 -21 71
14 173 14 244 0 52 -11 57 -10 116 21 34 17 79 34 101 37 40 5 40 5 51 -38 7
-24 10 -68 7 -96 -5 -46 -1 -61 26 -115 29 -55 32 -70 31 -147 -1 -189 -84
-295 -261 -332 l-61 -13 22 -29 c19 -25 21 -44 24 -170 2 -78 9 -148 14 -154
16 -19 33 -16 111 20 346 162 507 573 362 929 -54 133 -173 271 -299 347 -96
58 -215 92 -336 96 -58 2 -125 0 -150 -4z"/>
</g>
</svg>
