<?xml version="1.0" standalone="no"?>
<!DOCTYPE svg PUBLIC "-//W3C//DTD SVG 20010904//EN"
 "http://www.w3.org/TR/2001/REC-SVG-20010904/DTD/svg10.dtd">
<svg version="1.0" xmlns="http://www.w3.org/2000/svg"
 width="200.000000pt" height="200.000000pt" viewBox="0 0 200.000000 200.000000"
 preserveAspectRatio="xMidYMid meet" class="social-img-svg">

<g transform="translate(0.000000,200.000000) scale(0.100000,-0.100000)"
fill="#000000" stroke="none">
<path d="M284 1659 c-18 -5 -46 -22 -64 -39 -25 -23 -31 -36 -28 -62 3 -32 18
-42 383 -271 209 -130 391 -240 404 -244 14 -3 36 -2 50 4 48 18 746 463 765
487 27 35 15 70 -36 103 l-42 28 -700 2 c-406 1 -714 -2 -732 -8z"/>
<path d="M1769 1316 c-13 -7 -186 -115 -383 -239 -232 -146 -369 -227 -385
-227 -17 0 -162 85 -404 235 -208 129 -383 235 -390 235 -36 0 -37 -17 -37
-443 0 -472 -1 -466 73 -515 l41 -27 716 0 716 0 41 27 c74 49 73 43 73 522 0
402 -1 426 -18 435 -13 7 -26 6 -43 -3z"/>
</g>
</svg>
