<svg version="1.0" xmlns="http://www.w3.org/2000/svg"
 viewBox="0 0 144.000000 120.000000"
 preserveAspectRatio="xMidYMid meet" class="social-img-svg" width="144.000000pt" height="144.000000pt">
    <linearGradient x1="0" y1="0" x2="100%" y2="100%" id="gradient">
        <stop class="gradient__brand-secondary" offset="0"/>
        <stop class="gradient__brand" offset="100%"/>
    </linearGradient>
<g fill="url(#gradient)" transform="translate(0.000000,120.000000) scale(0.100000,-0.100000)"
 stroke="none">
<path d="M912 1186 c-60 -20 -114 -59 -149 -109 -44 -63 -58 -105 -58 -180 l0
-69 -60 7 c-89 9 -229 59 -319 113 -43 26 -112 80 -153 120 l-74 73 -16 -38
c-11 -24 -17 -65 -17 -113 -1 -88 21 -144 79 -209 42 -46 39 -47 -31 -26 -27
8 -51 15 -53 15 -2 0 -1 -20 2 -45 13 -93 76 -178 165 -222 l57 -28 -63 -3
-63 -3 28 -51 c45 -82 114 -131 218 -153 29 -6 29 -7 10 -22 -75 -56 -202
-100 -321 -111 l-79 -8 55 -28 c278 -144 626 -120 872 60 68 51 177 171 221
245 75 128 127 304 127 430 l0 62 71 74 c40 41 70 76 67 78 -3 3 -22 -1 -44
-8 -21 -8 -55 -17 -74 -20 -34 -7 -35 -6 -14 11 30 26 94 111 94 127 0 9 -19
5 -67 -16 -77 -32 -115 -36 -134 -13 -46 56 -192 88 -277 60z"/>
</g>
</svg>
