<svg version="1.0" xmlns="http://www.w3.org/2000/svg"
 width="132.000000pt" height="120.000000pt" viewBox="0 0 132.000000 120.000000"
 preserveAspectRatio="xMidYMid meet" class="social-img-svg">

<g transform="translate(0.000000,120.000000) scale(0.100000,-0.100000)"
fill="#000000" stroke="none">
<path d="M96 1190 c-55 -17 -96 -76 -96 -137 0 -38 33 -89 72 -113 71 -43 189
-14 222 54 58 123 -58 238 -198 196z"/>
<path d="M879 804 c-25 -7 -67 -32 -92 -55 l-47 -41 0 51 0 51 -145 0 -145 0
0 -405 0 -405 145 0 145 0 0 254 c0 246 1 254 23 287 71 107 224 79 256 -46 6
-25 11 -139 11 -269 l0 -226 145 0 145 0 0 255 c0 150 -5 276 -11 307 -25 118
-101 209 -200 241 -62 20 -167 21 -230 1z"/>
<path d="M30 405 l0 -405 130 0 130 0 0 405 0 405 -130 0 -130 0 0 -405z"/>
</g>
</svg>
