<svg version="1.0" xmlns="http://www.w3.org/2000/svg"
 width="144.000000pt" height="144.000000pt" viewBox="0 0 144.000000 144.000000"
 preserveAspectRatio="xMidYMid meet" class="social-img-svg">

<g transform="translate(0.000000,144.000000) scale(0.100000,-0.100000)"
fill="#000000" stroke="none">
<path d="M357 1211 c-189 -126 -347 -236 -351 -246 -8 -22 -8 -468 0 -490 9
-23 689 -475 714 -475 25 0 705 452 714 475 8 22 8 468 0 490 -9 23 -689 475
-714 475 -11 0 -174 -103 -363 -229z m303 -94 l0 -144 -130 -86 c-71 -48 -134
-87 -140 -87 -13 0 -210 131 -210 139 0 5 470 321 478 321 1 0 2 -65 2 -143z
m389 -32 c116 -77 211 -143 211 -146 0 -8 -197 -139 -210 -139 -6 0 -69 39
-140 87 l-130 86 0 145 0 144 29 -19 c16 -10 124 -81 240 -158z m-219 -292
c55 -36 100 -69 100 -73 0 -9 -197 -140 -210 -140 -16 0 -211 133 -208 142 4
12 191 137 206 137 7 1 57 -29 112 -66z m-630 -19 c39 -26 70 -50 70 -54 0 -7
-135 -100 -145 -100 -3 0 -5 45 -5 100 0 55 2 100 5 100 3 0 37 -21 75 -46z
m1120 -54 c0 -55 -2 -100 -5 -100 -13 0 -145 94 -143 102 3 9 129 97 141 97 4
1 7 -44 7 -99z m-790 -167 l130 -86 0 -145 0 -144 -29 19 c-170 109 -450 300
-448 305 3 12 190 137 205 137 6 1 71 -38 142 -86z m630 20 c55 -36 100 -69
100 -72 0 -5 -316 -218 -451 -304 l-29 -19 0 144 0 145 128 86 c70 47 133 86
140 86 7 1 57 -29 112 -66z"/>
</g>
</svg>
